<svg width="114" height="114" viewBox="0 0 114 114" fill="none" xmlns="http://www.w3.org/2000/svg">
<g clip-path="url(#clip0)">
<path d="M111.284 1.87695H2.71561C1.68188 1.87695 0.84375 2.71508 0.84375 3.74881V78.6233C0.84375 79.657 1.68188 80.4951 2.71561 80.4951H36.5158C36.572 81.1185 36.6637 81.7324 36.7741 82.3408L26.507 94.5771C25.842 95.3687 25.9447 96.5494 26.7363 97.2144C26.9593 97.4018 27.2232 97.5345 27.5065 97.6021L38.8088 100.301L43.4305 110.971C43.8413 111.919 44.9434 112.356 45.892 111.945C46.1592 111.829 46.3955 111.653 46.5827 111.43L56.833 99.2138C56.8892 99.2138 56.9434 99.2138 56.9996 99.2138C57.0558 99.2138 57.11 99.2138 57.1662 99.2138L67.4165 111.43C68.0805 112.222 69.2612 112.326 70.0535 111.662C70.2765 111.475 70.4529 111.238 70.5687 110.971L75.1903 100.301L86.4927 97.6021C87.4983 97.3625 88.1195 96.3531 87.8799 95.3474C87.8123 95.0641 87.6796 94.8001 87.4922 94.5771L77.2251 82.3408C77.3355 81.7324 77.4272 81.1185 77.4834 80.4951H111.284C112.317 80.4951 113.155 79.657 113.155 78.6233V3.74881C113.155 2.71485 112.317 1.87695 111.284 1.87695ZM45.6617 106.701L41.8712 97.9596C41.637 97.4191 41.162 97.0204 40.589 96.8833L31.3233 94.6689L38.0433 86.6592C38.0788 86.7415 38.1256 86.8164 38.1612 86.8988C38.4045 87.4603 38.6685 87.9938 38.9605 88.5236C39.0803 88.7444 39.2076 88.9616 39.3348 89.1768C39.592 89.6048 39.8639 90.0241 40.151 90.4347C40.3513 90.7211 40.5609 90.9963 40.7762 91.2771C41.027 91.5953 41.2853 91.906 41.5567 92.213C41.8282 92.52 42.1445 92.8588 42.4571 93.1695C42.6873 93.3997 42.9251 93.6225 43.1684 93.8415C43.3706 94.0287 43.5521 94.2252 43.7637 94.4031C43.9752 94.5809 44.1736 94.7007 44.3758 94.8579C44.4675 94.9291 44.5461 95.0114 44.6397 95.0807C44.8082 95.208 44.986 95.3184 45.1582 95.4401C45.4277 95.6273 45.6936 95.8294 45.9725 96.0016C46.5041 96.3423 47.0525 96.653 47.6085 96.9376C47.8219 97.0461 48.039 97.1453 48.2561 97.2464C48.7552 97.4811 49.2576 97.6945 49.763 97.8866C49.909 97.9409 50.0531 98.0027 50.1991 98.0532C50.9081 98.3024 51.6306 98.5118 52.363 98.6803L52.3836 98.6859L45.6617 106.701ZM60.515 95.0732C59.6565 95.2545 58.7854 95.3692 57.9093 95.4157H57.885C57.5892 95.4307 57.2935 95.4513 56.9959 95.4513C56.6982 95.4513 56.4025 95.4307 56.1067 95.4157H56.0824C55.2082 95.3689 54.339 95.255 53.4824 95.0751L53.3251 95.0432C52.9919 94.9702 52.6625 94.8804 52.3368 94.7868C52.2001 94.7475 52.0616 94.7119 51.9269 94.6689C51.6929 94.5959 51.4626 94.5098 51.2324 94.4274C51.0022 94.345 50.7831 94.2645 50.5623 94.1728C50.4256 94.1148 50.2908 94.053 50.1561 93.9856C49.8491 93.8471 49.544 93.7067 49.2463 93.5514L49.0966 93.469C48.3249 93.0563 47.5865 92.5843 46.8878 92.0576C46.4985 91.7675 46.1391 91.4474 45.7853 91.1311C45.3669 90.7579 44.9675 90.3636 44.5892 89.9499C44.4394 89.7889 44.2784 89.6354 44.1362 89.4688C43.6134 88.8539 43.1366 88.2014 42.7098 87.5165C42.6462 87.4154 42.5919 87.3087 42.5226 87.2039C42.1246 86.5389 41.7743 85.8463 41.4744 85.1317C41.4482 85.0681 41.4182 85.0045 41.3939 84.9445C41.0623 84.1256 40.7956 83.2821 40.5965 82.4213C40.5965 82.3876 40.5703 82.3614 40.5609 82.3277C40.289 81.1117 40.1521 79.8692 40.1528 78.6233C40.1472 69.319 47.6852 61.7721 56.9893 61.7662C66.2936 61.7606 73.8405 69.2986 73.8464 78.6027C73.8471 79.8629 73.7064 81.1192 73.4271 82.3481C73.4177 82.3799 73.399 82.408 73.3915 82.4398C73.1926 83.2997 72.9266 84.1427 72.5959 84.9612C72.5697 85.0267 72.5398 85.0922 72.5117 85.1484C72.2127 85.8585 71.8636 86.5466 71.4672 87.2074C71.4054 87.3122 71.3493 87.4227 71.28 87.5275C70.8532 88.2114 70.3771 88.8633 69.8555 89.478C69.7152 89.6427 69.556 89.7924 69.4082 89.9534C69.0247 90.3708 68.6203 90.7689 68.1971 91.1458C67.8414 91.4621 67.4876 91.7822 67.1002 92.0705C66.7127 92.3588 66.3664 92.6021 65.9883 92.8436L65.9658 92.8567C65.627 93.0719 65.2807 93.2704 64.9288 93.4576C64.8595 93.495 64.7922 93.5343 64.7229 93.5699C64.4402 93.7177 64.1613 93.8506 63.8637 93.9798C63.714 94.0472 63.5661 94.1164 63.4145 94.1782C63.2048 94.2662 62.9914 94.3429 62.778 94.4197C62.5646 94.4964 62.3007 94.5956 62.0574 94.6705C61.9282 94.7117 61.7972 94.7473 61.6661 94.7847C61.3348 94.8783 61.0016 94.9719 60.6647 95.043L60.515 95.0732ZM82.6759 94.6633L73.4102 96.8777C72.8372 97.0148 72.3622 97.4135 72.128 97.954L68.3375 106.701L61.6156 98.6915H61.6325C62.3676 98.5235 63.0927 98.3136 63.8038 98.0626C63.9442 98.0139 64.079 97.9559 64.2194 97.9053C64.7416 97.7069 65.2564 97.4898 65.7618 97.2483C65.9677 97.1528 66.1736 97.0611 66.3757 96.9563C66.9373 96.6643 67.4989 96.3479 68.038 96.0016C68.2981 95.8369 68.5471 95.6516 68.7998 95.4738C68.987 95.3446 69.1742 95.2267 69.3614 95.09C69.4606 95.0152 69.5486 94.9272 69.6459 94.8504C69.8331 94.697 70.0502 94.5678 70.2411 94.4068C70.4321 94.2458 70.6268 94.0324 70.8252 93.8565C71.0723 93.6319 71.3156 93.4054 71.5514 93.1714C71.8596 92.8632 72.1579 92.5462 72.4462 92.2205C72.7176 91.9135 72.9759 91.6028 73.2286 91.2845C73.4439 91.0094 73.6535 90.723 73.8538 90.4422C74.1421 90.0341 74.4154 89.6149 74.6681 89.1881C74.7991 88.9709 74.9264 88.7519 75.0425 88.5292C75.3333 88.0013 75.5984 87.4615 75.838 86.91C75.8717 86.8145 75.9204 86.7378 75.9559 86.6536L82.6759 94.6633ZM109.412 76.7514H77.4946C76.4789 65.4313 66.4785 57.0779 55.1584 58.0939C45.2459 58.9835 37.3904 66.839 36.5008 76.7514H4.58747V5.62068H109.412V76.7514Z" fill="#000000"/>
<path d="M10.2029 9.36328C9.16918 9.36328 8.33105 10.2014 8.33105 11.2351V18.7226H12.0748V13.107H17.6904V9.36328H10.2029Z" fill="#000000"/>
<path d="M103.796 9.36328H96.3086V13.107H101.924V18.7226H105.668V11.2351C105.668 10.2012 104.83 9.36328 103.796 9.36328Z" fill="#000000"/>
<path d="M101.924 63.6475V69.263H96.3086V73.0068H103.796C104.83 73.0068 105.668 72.1686 105.668 71.1349V63.6475H101.924Z" fill="#000000"/>
<path d="M12.0748 69.263V63.6475H8.33105V71.1349C8.33105 72.1686 9.16918 73.0068 10.2029 73.0068H17.6904V69.263H12.0748Z" fill="#000000"/>
<path d="M79.4618 22.4668H34.5371V26.2105H79.4618V22.4668Z" fill="#000000"/>
<path d="M90.6927 33.6973H23.3057V37.441H90.6927V33.6973Z" fill="#000000"/>
<path d="M56.9995 65.5195C49.7629 65.5195 43.8965 71.3859 43.8965 78.6226C43.9047 85.8557 49.7664 91.7174 56.9995 91.7256C64.2361 91.7256 70.1025 85.8592 70.1025 78.6226C70.1025 71.3859 64.2361 65.5195 56.9995 65.5195ZM56.9995 87.9819C51.8306 87.9819 47.6402 83.7915 47.6402 78.6226C47.6463 73.4562 51.8332 69.2693 56.9995 69.2633C62.1684 69.2633 66.3588 73.4537 66.3588 78.6226C66.3588 83.7915 62.1684 87.9819 56.9995 87.9819Z" fill="#000000"/>
</g>
<defs>
<clipPath id="clip0">
<rect width="112.312" height="112.312" fill="white" transform="translate(0.84375 0.831055)"/>
</clipPath>
</defs>
</svg>
